<svg viewBox="0 0 32 32" fill="none" xmlns="http://www.w3.org/2000/svg">
  <!-- Background Circle -->
  <circle cx="16" cy="16" r="15" fill="url(#gradient1)" stroke="#10b981" stroke-width="1" opacity="0.2"/>
  
  <!-- Tree Structure (representing data structures) -->
  <g stroke="#10b981" stroke-width="1.5" fill="none">
    <!-- Root node -->
    <circle cx="16" cy="8" r="2" fill="#10b981"/>
    
    <!-- Level 1 nodes -->
    <circle cx="10" cy="14" r="1.5" fill="#10b981"/>
    <circle cx="22" cy="14" r="1.5" fill="#10b981"/>
    
    <!-- Level 2 nodes -->
    <circle cx="7" cy="20" r="1.2" fill="#10b981"/>
    <circle cx="13" cy="20" r="1.2" fill="#10b981"/>
    <circle cx="19" cy="20" r="1.2" fill="#10b981"/>
    <circle cx="25" cy="20" r="1.2" fill="#10b981"/>
    
    <!-- Connecting lines -->
    <line x1="16" y1="10" x2="10" y2="12"/>
    <line x1="16" y1="10" x2="22" y2="12"/>
    <line x1="10" y1="15.5" x2="7" y2="18.8"/>
    <line x1="10" y1="15.5" x2="13" y2="18.8"/>
    <line x1="22" y1="15.5" x2="19" y2="18.8"/>
    <line x1="22" y1="15.5" x2="25" y2="18.8"/>
  </g>
  
  <!-- Algorithm flow arrows -->
  <g stroke="#10b981" stroke-width="1" fill="#10b981" opacity="0.8">
    <path d="M4 26 L6 24 L4 22" stroke-linecap="round" stroke-linejoin="round"/>
    <path d="M28 26 L26 24 L28 22" stroke-linecap="round" stroke-linejoin="round"/>
  </g>
  
  <!-- Gradient definitions -->
  <defs>
    <linearGradient id="gradient1" x1="0%" y1="0%" x2="100%" y2="100%">
      <stop offset="0%" stop-color="#10b981" stop-opacity="0.3"/>
      <stop offset="100%" stop-color="#3b82f6" stop-opacity="0.1"/>
    </linearGradient>
  </defs>
</svg>
